<svg width="2107" height="358" viewBox="0 0 2107 358" fill="none" xmlns="http://www.w3.org/2000/svg">
<path d="M112.204 161L0 227.664V358L112.204 291.336V161Z" fill="#FF0036"/>
<path d="M125.669 0L56.5508 42.6435V126L125.669 83.3565V0Z" fill="#FF0036"/>
<path d="M254.927 41L157.982 98.5288V211L254.927 153.471V41Z" fill="#FF0036"/>
<g filter="url(#filter0_d_413_938)">
<path d="M435.788 272.64C422.094 272.64 409.961 270.213 399.388 265.36C388.814 260.507 380.494 253.4 374.428 244.04C368.534 234.507 365.588 222.98 365.588 209.46V202.96H393.408V209.46C393.408 222.287 397.221 231.907 404.848 238.32C412.648 244.733 422.961 247.94 435.788 247.94C448.788 247.94 458.581 245.253 465.168 239.88C471.754 234.333 475.048 227.227 475.048 218.56C475.048 212.84 473.488 208.16 470.368 204.52C467.248 200.88 462.828 198.02 457.108 195.94C451.388 193.687 444.541 191.607 436.568 189.7L426.948 187.36C415.334 184.587 405.194 181.207 396.528 177.22C388.034 173.06 381.448 167.6 376.768 160.84C372.088 154.08 369.748 145.413 369.748 134.84C369.748 124.093 372.348 114.907 377.548 107.28C382.921 99.6533 390.288 93.76 399.648 89.6C409.008 85.44 420.014 83.36 432.668 83.36C445.321 83.36 456.588 85.5267 466.468 89.86C476.521 94.1933 484.408 100.607 490.128 109.1C495.848 117.593 498.708 128.253 498.708 141.08V150.44H470.888V141.08C470.888 133.28 469.241 126.953 465.948 122.1C462.828 117.247 458.408 113.693 452.688 111.44C446.968 109.187 440.294 108.06 432.668 108.06C421.574 108.06 412.908 110.4 406.668 115.08C400.601 119.587 397.568 125.913 397.568 134.06C397.568 139.607 398.868 144.2 401.468 147.84C404.241 151.307 408.228 154.167 413.428 156.42C418.628 158.673 425.128 160.667 432.928 162.4L442.548 164.74C454.334 167.34 464.734 170.72 473.748 174.88C482.761 178.867 489.868 184.327 495.068 191.26C500.268 198.193 502.868 207.12 502.868 218.04C502.868 228.96 500.094 238.493 494.548 246.64C489.174 254.787 481.461 261.2 471.408 265.88C461.354 270.387 449.481 272.64 435.788 272.64ZM568.91 269V112.48H513.01V87H652.89V112.48H596.99V269H568.91ZM646.794 269L698.794 87H748.194L799.934 269H771.074L759.114 226.1H687.874L675.914 269H646.794ZM694.894 200.1H752.094L725.574 104.42H721.414L694.894 200.1ZM890.16 272.64C867.973 272.64 850.38 266.4 837.38 253.92C824.38 241.267 817.88 223.067 817.88 199.32V156.68C817.88 132.933 824.38 114.82 837.38 102.34C850.38 89.6867 867.973 83.36 890.16 83.36C912 83.36 928.813 89.4267 940.6 101.56C952.56 113.693 958.54 130.247 958.54 151.22V152.78H930.72V150.44C930.72 138.133 927.34 128.08 920.58 120.28C913.993 112.48 903.853 108.58 890.16 108.58C876.293 108.58 865.46 112.827 857.66 121.32C849.86 129.64 845.96 141.253 845.96 156.16V199.84C845.96 214.573 849.86 226.187 857.66 234.68C865.46 243.173 876.293 247.42 890.16 247.42C903.853 247.42 913.993 243.52 920.58 235.72C927.34 227.747 930.72 217.693 930.72 205.56V201.14H958.54V204.78C958.54 225.753 952.56 242.307 940.6 254.44C928.813 266.573 912 272.64 890.16 272.64ZM989.63 269V87H1017.71V162.66H1021.87L1089.73 87H1126.39L1044.23 176.7L1129.25 269H1091.55L1021.87 191.78H1017.71V269H989.63ZM1436.25 269V87H1548.57V112.48H1464.33V165H1541.81V190.48H1464.33V269H1436.25ZM1575.9 269V87H1603.98V243.52H1691.6V269H1575.9ZM1780.12 272.64C1757.76 272.64 1739.99 266.4 1726.82 253.92C1713.65 241.267 1707.06 223.067 1707.06 199.32V156.68C1707.06 132.933 1713.65 114.82 1726.82 102.34C1739.99 89.6867 1757.76 83.36 1780.12 83.36C1802.48 83.36 1820.25 89.6867 1833.42 102.34C1846.77 114.82 1853.44 132.933 1853.44 156.68V199.32C1853.44 223.067 1846.77 241.267 1833.42 253.92C1820.25 266.4 1802.48 272.64 1780.12 272.64ZM1780.12 247.42C1794.51 247.42 1805.6 243.26 1813.4 234.94C1821.2 226.447 1825.1 214.92 1825.1 200.36V155.64C1825.1 141.08 1821.2 129.64 1813.4 121.32C1805.6 112.827 1794.51 108.58 1780.12 108.58C1766.08 108.58 1755.07 112.827 1747.1 121.32C1739.13 129.64 1735.14 141.08 1735.14 155.64V200.36C1735.14 214.92 1739.13 226.447 1747.1 234.94C1755.07 243.26 1766.08 247.42 1780.12 247.42ZM1901.28 269L1874.5 87H1902.58L1924.42 250.02H1928.58L1956.66 87H2005.8L2033.88 250.02H2038.04L2059.62 87H2087.7L2060.92 269H2011.78L1983.18 103.64H1979.02L1950.68 269H1901.28Z" fill="white"/>
<path d="M1258.49 269C1247.74 269 1238.3 267.093 1230.15 263.28C1222.18 259.293 1215.94 253.66 1211.43 246.38C1206.92 238.927 1204.67 230.087 1204.67 219.86C1204.67 212.407 1205.97 205.907 1208.57 200.36C1211.34 194.813 1215.07 190.22 1219.75 186.58C1224.43 182.94 1229.63 180.253 1235.35 178.52V174.88C1226.68 172.28 1219.58 167.773 1214.03 161.36C1208.48 154.947 1205.71 146.453 1205.71 135.88C1205.71 125.307 1208.05 116.38 1212.73 109.1C1217.41 101.82 1223.74 96.36 1231.71 92.72C1239.86 88.9067 1249.13 87 1259.53 87H1287.87V114.04H1265.51C1257.71 114.04 1251.21 116.12 1246.01 120.28C1240.98 124.44 1238.47 130.593 1238.47 138.74C1238.47 144.46 1239.68 149.14 1242.11 152.78C1244.71 156.42 1248 159.107 1251.99 160.84C1256.15 162.573 1260.66 163.44 1265.51 163.44H1290.73V140.04H1323.49V163.44H1347.41V190.48H1323.49V269H1258.49ZM1264.47 241.96H1290.73V190.48H1264.47C1256.84 190.48 1250.43 192.647 1245.23 196.98C1240.03 201.313 1237.43 207.727 1237.43 216.22C1237.43 224.887 1240.12 231.387 1245.49 235.72C1251.04 239.88 1257.36 241.96 1264.47 241.96Z" fill="#FF0036"/>
</g>
<defs>
<filter id="filter0_d_413_938" x="361.588" y="83.3604" width="1730.12" height="197.279" filterUnits="userSpaceOnUse" color-interpolation-filters="sRGB">
<feFlood flood-opacity="0" result="BackgroundImageFix"/>
<feColorMatrix in="SourceAlpha" type="matrix" values="0 0 0 0 0 0 0 0 0 0 0 0 0 0 0 0 0 0 127 0" result="hardAlpha"/>
<feOffset dy="4"/>
<feGaussianBlur stdDeviation="2"/>
<feComposite in2="hardAlpha" operator="out"/>
<feColorMatrix type="matrix" values="0 0 0 0 0 0 0 0 0 0 0 0 0 0 0 0 0 0 0.25 0"/>
<feBlend mode="normal" in2="BackgroundImageFix" result="effect1_dropShadow_413_938"/>
<feBlend mode="normal" in="SourceGraphic" in2="effect1_dropShadow_413_938" result="shape"/>
</filter>
</defs>
</svg>
